{
    "asset" : {
        "generator" : "Khronos glTF Blender I/O v0.9.36",
        "version" : "2.0"
    },
    "scene" : 0,
    "scenes" : [
        {
            "name" : "Scene",
            "nodes" : [
                0
            ]
        }
    ],
    "nodes" : [
        {
            "mesh" : 0,
            "name" : "Plan",
            "rotation" : [
                0.7071068286895752,
                0,
                0,
                0.7071067094802856
            ],
            "scale" : [
                0.009999999776482582,
                0.009999999776482582,
                0.009999999776482582
            ]
        }
    ],
    "materials" : [
        {
            "doubleSided" : true,
            "name" : "Material.001",
            "pbrMetallicRoughness" : {
                "baseColorFactor" : [
                    1,
                    1,
                    1,
                    1
                ],
                "metallicFactor" : 0,
                "roughnessFactor" : 0.5
            }
        }
    ],
    "meshes" : [
        {
            "extras" : {
                "targetNames" : [
                    "firstkey"
                ]
            },
            "name" : "Mesh",
            "primitives" : [
                {
                    "attributes" : {
                        "POSITION" : 0,
                        "NORMAL" : 1,
                        "TANGENT" : 2,
                        "TEXCOORD_0" : 3
                    },
                    "indices" : 4,
                    "material" : 0,
                    "targets" : [
                        {
                            "POSITION" : 5,
                            "NORMAL" : 6,
                            "TANGENT" : 7
                        }
                    ]
                }
            ],
            "weights" : [
                0
            ]
        }
    ],
    "accessors" : [
        {
            "bufferView" : 0,
            "componentType" : 5126,
            "count" : 3147,
            "max" : [
                400,
                400,
                14.305845260620117
            ],
            "min" : [
                -400,
                -400,
                -205.49017333984375
            ],
            "type" : "VEC3"
        },
        {
            "bufferView" : 1,
            "componentType" : 5126,
            "count" : 3147,
            "type" : "VEC3"
        },
        {
            "bufferView" : 2,
            "componentType" : 5126,
            "count" : 3147,
            "type" : "VEC4"
        },
        {
            "bufferView" : 3,
            "componentType" : 5126,
            "count" : 3147,
            "type" : "VEC2"
        },
        {
            "bufferView" : 4,
            "componentType" : 5123,
            "count" : 6348,
            "type" : "SCALAR"
        },
        {
            "bufferView" : 5,
            "componentType" : 5126,
            "count" : 3147,
            "max" : [
                0,
                0,
                0
            ],
            "min" : [
                -4.547473508864641e-13,
                0,
                -89.87049865722656
            ],
            "type" : "VEC3"
        },
        {
            "bufferView" : 6,
            "componentType" : 5126,
            "count" : 3147,
            "type" : "VEC3"
        },
        {
            "bufferView" : 7,
            "componentType" : 5126,
            "count" : 3147,
            "type" : "VEC3"
        }
    ],
    "bufferViews" : [
        {
            "buffer" : 0,
            "byteLength" : 37764,
            "byteOffset" : 0
        },
        {
            "buffer" : 0,
            "byteLength" : 37764,
            "byteOffset" : 37764
        },
        {
            "buffer" : 0,
            "byteLength" : 50352,
            "byteOffset" : 75528
        },
        {
            "buffer" : 0,
            "byteLength" : 25176,
            "byteOffset" : 125880
        },
        {
            "buffer" : 0,
            "byteLength" : 12696,
            "byteOffset" : 151056
        },
        {
            "buffer" : 0,
            "byteLength" : 37764,
            "byteOffset" : 163752
        },
        {
            "buffer" : 0,
            "byteLength" : 37764,
            "byteOffset" : 201516
        },
        {
            "buffer" : 0,
            "byteLength" : 37764,
            "byteOffset" : 239280
        }
    ],
    "buffers" : [
        {
            "byteLength" : 277044,
            "uri" : "data:application/octet-stream;base64,"
        }
    ]
}
